<?xml version="1.0" encoding="UTF-8" standalone="no"?>
<svg width="10px" height="14px" viewBox="0 0 10 14" version="1.1" xmlns="http://www.w3.org/2000/svg" xmlns:xlink="http://www.w3.org/1999/xlink" xmlns:sketch="http://www.bohemiancoding.com/sketch/ns">
    <!-- Generator: Sketch 3.3.2 (12043) - http://www.bohemiancoding.com/sketch -->
    <title>Imported Layers</title>
    <desc>Created with Sketch.</desc>
    <defs></defs>
    <g id="Page-1" stroke="none" stroke-width="1" fill="none" fill-rule="evenodd" sketch:type="MSPage">
        <g id="Artboard-1-Copy-5" sketch:type="MSArtboardGroup" transform="translate(-693.000000, -466.000000)" fill="#FFFFFF">
            <path d="M702.31736,471.971546 L701.613107,471.971546 C701.523147,471.971546 701.43232,471.899093 701.43232,471.790933 L701.43232,470.129879 C701.43232,468.215759 699.951707,466.590933 698.038107,466.518999 C696.034027,466.446546 694.372453,468.053346 694.372453,470.057599 L694.372453,471.809133 C694.372453,471.899093 694.3,471.989919 694.191667,471.989919 L693.487587,471.989919 C693.216667,471.989919 693,472.206586 693,472.477333 L693,478.868999 C693,479.139919 693.216667,479.356586 693.487587,479.356586 L702.298467,479.356586 C702.569213,479.356586 702.78588,479.139919 702.78588,478.868999 L702.78588,472.459133 C702.804773,472.188213 702.588107,471.971546 702.31736,471.971546 L702.31736,471.971546 Z M695.47416,470.057599 C695.47416,468.667466 696.629773,467.547559 698.038107,467.620013 C699.35648,467.692466 700.36736,468.811679 700.36736,470.129879 L700.36736,471.809133 C700.36736,471.899093 700.294907,471.989919 700.186573,471.989919 L695.636573,471.989919 C695.54644,471.989919 695.455787,471.917466 695.455787,471.809133 L695.455787,470.057599 L695.47416,470.057599 Z" id="Imported-Layers" sketch:type="MSShapeGroup"></path>
        </g>
    </g>
</svg>