<?xml version="1.0" encoding="UTF-8" standalone="no"?>
<svg width="32px" height="36px" viewBox="0 0 32 36" version="1.1" xmlns="http://www.w3.org/2000/svg" xmlns:xlink="http://www.w3.org/1999/xlink">
    <!-- Generator: Sketch 42 (36781) - http://www.bohemiancoding.com/sketch -->
    <title>lock</title>
    <desc>Created with Sketch.</desc>
    <defs></defs>
    <g id="Page-1" stroke="none" stroke-width="1" fill="none" fill-rule="evenodd">
        <g id="lock" fill-rule="nonzero" fill="#FFFFFF">
            <g id="Group-27" transform="translate(1.000000, 1.000000)">
                <path d="M26.9999809,31 C26.9999049,31 27,12.9999998 27,12.9999998 C26.9999937,12.9999999 3.00001915,13 3.00001915,13 C3.00009505,13 3,31.0000002 3,31.0000002 C3.00000626,31.0000001 26.9999809,31 26.9999809,31 Z M0,12.9910904 C0,11.3391568 1.34731857,10 3.00001915,10 L26.9999809,10 C28.6568457,10 30,11.3417706 30,12.9910904 L30,31.0089096 C30,32.6608432 28.6526814,34 26.9999809,34 L3.00001915,34 C1.34315432,34 0,32.6582294 0,31.0089096 L0,12.9910904 Z" id="Rectangle-3"></path>
                <path d="M10,9.44444444 L20,9.44444444 L20,6.22222222 C20,4.44773105 18.5511576,3 16.7681675,3 L13.2318325,3 C11.4441067,3 10,4.44237521 10,6.22222222 L10,9.44444444 Z M7,6.22222222 C7,2.78578378 9.7869873,0 13.2318325,0 L16.7681675,0 C20.2099136,0 23,2.79277624 23,6.22222222 L23,12.4444444 L7,12.4444444 L7,6.22222222 Z" id="Rectangle-4"></path>
                <path d="M11.8803543,20.9089183 C11.2945679,20.3231319 10.3448204,20.3231319 9.75903397,20.9089183 C9.17324753,21.4947048 9.17324753,22.4444522 9.75903397,23.0302387 L13.7874285,27.0586332 L21.4128787,19.433183 C21.9986652,18.8473965 21.9986652,17.8976491 21.4128787,17.3118626 C20.8270923,16.7260762 19.8773448,16.7260762 19.2915584,17.3118626 L13.7874285,22.8159925 L11.8803543,20.9089183 Z" id="Path-2"></path>
            </g>
        </g>
    </g>
</svg>